<?xml version="1.0" encoding="UTF-8"?>
<svg width="106px" height="122px" viewBox="0 0 106 122" version="1.1" xmlns="http://www.w3.org/2000/svg" xmlns:xlink="http://www.w3.org/1999/xlink">
    <!-- Generator: Sketch 49 (51002) - http://www.bohemiancoding.com/sketch -->
    <title>Page 1</title>
    <desc>Created with Sketch.</desc>
    <defs>
        <polygon id="path-1" points="0 0.375959184 105.793692 0.375959184 105.793692 122 0 122"></polygon>
    </defs>
    <g id="Page-1" stroke="none" stroke-width="1" fill="none" fill-rule="evenodd">
        <g id="Home" transform="translate(-87.000000, -59.000000)">
            <g id="Page-1" transform="translate(87.000000, 59.000000)">
                <g id="Group-3">
                    <mask id="mask-2" fill="white">
                        <use xlink:href="#path-1"></use>
                    </mask>
                    <g id="Clip-2"></g>
                    <path d="M-8.24902724e-05,32.8520272 L-8.24902724e-05,89.523932 C-8.24902724e-05,91.0028707 0.7844,92.3697687 2.05763735,93.1092381 L50.8394973,121.445605 C52.1127346,122.185075 53.6812872,122.185075 54.9545245,121.445605 L103.736384,93.1092381 C105.009622,92.3697687 105.793692,91.0028707 105.793692,89.523932 L105.793692,32.8520272 C105.793692,31.3730884 105.009622,30.0061905 103.736384,29.2663061 L54.9545245,0.930768707 C53.6812872,0.190884354 52.1127346,0.190884354 50.8394973,0.930768707 L2.05763735,29.2663061 C0.7844,30.0061905 -8.24902724e-05,31.3730884 -8.24902724e-05,32.8520272" id="Fill-1" fill="#1D1D1B" mask="url(#mask-2)"></path>
                </g>
                <polygon id="Fill-4" fill="#F5F5F5" points="61.8046621 90 48.4887055 40.127967 34.3083448 90 32.1229331 90 17 35 19.1874797 35 33.2350777 85.2876917 47.4419081 35 49.6306286 35 64 90"></polygon>
                <polygon id="Fill-6" fill="#F5F5F5" points="75.3429024 90 73.1531796 90 58 35 60.1922092 35 74.2671037 85.2876917 88.8131781 35 91 35"></polygon>
                <polygon id="Fill-8" fill="#F5F5F5" points="61.8046621 90 48.4887055 40.127967 34.3083448 90 32.1229331 90 17 35 19.1874797 35 33.2350777 85.2876917 47.4419081 35 49.6306286 35 64 90"></polygon>
                <polygon id="Fill-10" fill="#F5F5F5" points="75.3429024 90 73.1531796 90 58 35 60.1922092 35 74.2671037 85.2876917 88.8131781 35 91 35"></polygon>
            </g>
        </g>
    </g>
</svg>